<svg xmlns="http://www.w3.org/2000/svg" width="19.25" height="22" viewBox="0 0 19.25 22">
  <path id="Icon_awesome-discord" data-name="Icon awesome-discord" d="M12.771,10.45a1.126,1.126,0,1,1-1.122-1.221A1.172,1.172,0,0,1,12.771,10.45ZM7.634,9.229a1.225,1.225,0,0,0,0,2.442A1.172,1.172,0,0,0,8.756,10.45,1.165,1.165,0,0,0,7.634,9.229ZM19.25,2.266V22c-2.771-2.449-1.885-1.638-5.1-4.631l.583,2.035H2.255A2.26,2.26,0,0,1,0,17.138V2.266A2.26,2.26,0,0,1,2.255,0H17A2.26,2.26,0,0,1,19.25,2.266ZM16.115,12.694a14.731,14.731,0,0,0-1.584-6.413A5.44,5.44,0,0,0,11.44,5.126l-.154.176a7.321,7.321,0,0,1,2.739,1.4A9.347,9.347,0,0,0,5.808,6.38c-.407.187-.649.319-.649.319A7.421,7.421,0,0,1,8.052,5.258l-.11-.132A5.44,5.44,0,0,0,4.851,6.281a14.731,14.731,0,0,0-1.584,6.413,3.988,3.988,0,0,0,3.355,1.672s.407-.495.737-.913a3.421,3.421,0,0,1-1.925-1.3c.162.113.429.26.451.275a8.018,8.018,0,0,0,6.864.385,6.3,6.3,0,0,0,1.265-.649,3.471,3.471,0,0,1-1.991,1.309c.33.418.726.891.726.891A4.021,4.021,0,0,0,16.115,12.694Z" fill="#cdcee0"/>
</svg>
